<?xml version="1.0" encoding="UTF-8"?>
<svg xmlns="http://www.w3.org/2000/svg" xmlns:xlink="http://www.w3.org/1999/xlink" width="133pt" height="64pt" viewBox="0 0 133 64" version="1.1">
<g id="surface1">
<path style="fill:none;stroke-width:1.4343;stroke-linecap:butt;stroke-linejoin:miter;stroke:rgb(12.54902%,8.627451%,0%);stroke-opacity:1;stroke-miterlimit:10;" d="M 458.173978 75.677253 C 457.925169 75.706447 457.734904 75.706447 457.57391 75.677253 C 457.734904 75.618866 457.925169 75.618866 458.173978 75.677253 Z M 458.173978 75.677253 " transform="matrix(0.266897,0,0,0.26761,0,0.0526623)"/>
<path style="fill:none;stroke-width:1.4343;stroke-linecap:butt;stroke-linejoin:miter;stroke:rgb(12.54902%,8.627451%,0%);stroke-opacity:1;stroke-miterlimit:10;" d="M 458.173978 75.677253 C 457.925169 75.706447 457.734904 75.706447 457.57391 75.677253 C 457.734904 75.618866 457.925169 75.618866 458.173978 75.677253 Z M 458.173978 75.677253 " transform="matrix(0.266897,0,0,0.26761,0,0.0526623)"/>
<path style="fill-rule:nonzero;fill:rgb(12.54902%,8.627451%,0%);fill-opacity:1;stroke-width:1.434;stroke-linecap:round;stroke-linejoin:miter;stroke:rgb(12.54902%,8.627451%,0%);stroke-opacity:1;stroke-miterlimit:10;" d="M 471.024218 94.682255 L 472.356076 122.153387 C 472.356076 122.226371 472.356076 122.313952 472.356076 122.386936 C 471.682829 134.04976 476.893177 165.316053 453.695421 128.605162 C 453.578334 128.430001 453.812507 128.765727 453.695421 128.605162 L 449.743752 122.605887 C 449.582758 122.416129 449.904746 122.810242 449.743752 122.605887 C 439.615773 109.118467 426.765533 106.578628 409.744088 106.578628 L 405.587519 106.578628 C 404.460562 106.578628 403.553141 107.512821 403.597049 108.636773 L 403.62632 109.906693 C 407.577989 182.978152 388.361172 222.695979 339.184857 222.695979 L 73.823017 222.695979 C 53.757324 222.695979 37.496941 206.435171 37.496941 186.379201 C 37.496941 185.824523 37.74575 185.284443 38.155552 184.919523 C 64.368285 160.776456 80.614032 108.155079 41.243708 62.627736 C 40.760726 62.073058 40.585096 61.299429 40.833905 60.613381 C 46.746772 43.564347 60.109265 30.003942 77.013623 23.814909 C 78.49184 23.274828 79.984692 24.544748 79.706612 26.092006 C 75.374413 50.497815 89.673597 41.126685 115.930237 20.574425 C 116.281497 20.297086 116.705935 20.136522 117.159645 20.136522 C 128.765841 20.136522 285.295811 20.136522 344.848914 20.136522 C 357.347895 20.136522 369.393165 24.632328 378.950348 32.689749 C 387.073221 39.535637 394.230132 41.345637 401.35777 45.140798 C 401.650486 45.286766 401.972474 45.374347 402.294462 45.374347 L 409.905082 45.374347 C 426.98507 45.374347 443.08446 37.273136 453.256346 23.566764 C 453.373433 23.406199 453.534427 23.245635 453.695421 23.128861 C 465.565061 14.370795 471.682829 17.976199 472.356076 29.639023 C 472.356076 29.726603 472.356076 29.799587 472.356076 29.887168 L 471.024218 57.343703 C 470.672958 64.46693 466.940827 71.064672 460.866967 74.78685 C 459.783917 75.443705 458.847225 75.896205 458.173978 76.012979 C 457.939805 75.969189 457.734904 75.969189 457.57391 76.012979 C 457.734904 76.056769 457.939805 76.056769 458.173978 76.012979 C 458.847225 76.14435 459.798553 76.59685 460.866967 77.253705 C 466.926191 80.975883 470.672958 87.559029 471.024218 94.682255 Z M 471.024218 94.682255 " transform="matrix(0.266897,0,0,0.26761,0,0.0526623)"/>
<path style="fill-rule:nonzero;fill:rgb(100%,100%,100%);fill-opacity:1;stroke-width:4.4635;stroke-linecap:round;stroke-linejoin:miter;stroke:rgb(12.54902%,8.627451%,0%);stroke-opacity:1;stroke-miterlimit:10;" d="M 103.255627 68.08693 C 103.255627 78.917738 94.474142 87.704997 83.643644 87.704997 C 72.813146 87.704997 64.046297 78.917738 64.046297 68.08693 C 64.046297 57.256122 72.813146 48.48346 83.643644 48.48346 C 94.474142 48.48346 103.255627 57.256122 103.255627 68.08693 Z M 103.255627 68.08693 " transform="matrix(0.266897,0,0,0.26761,0,0.0526623)"/>
<path style=" stroke:none;fill-rule:nonzero;fill:rgb(100%,100%,100%);fill-opacity:1;" d="M 42.03125 27.742188 C 43.402344 28.1875 44.429688 28.894531 45.109375 29.871094 C 46.054688 31.230469 46.527344 32.890625 46.527344 34.855469 C 46.527344 36.347656 46.214844 37.777344 45.59375 39.140625 C 44.972656 40.511719 44.117188 41.503906 43.03125 42.132812 C 41.945312 42.761719 40.289062 43.078125 38.058594 43.078125 L 28.710938 43.078125 L 28.710938 42.257812 L 29.457031 42.257812 C 30.285156 42.257812 30.878906 41.859375 31.242188 41.0625 C 31.464844 40.542969 31.578125 39.441406 31.578125 37.757812 L 31.578125 18.347656 C 31.578125 16.484375 31.433594 15.308594 31.152344 14.820312 C 30.773438 14.171875 30.207031 13.847656 29.457031 13.847656 L 28.710938 13.847656 L 28.710938 13.027344 L 37.269531 13.027344 C 38.867188 13.027344 40.148438 13.207031 41.109375 13.5625 C 42.570312 14.09375 43.6875 15.035156 44.453125 16.386719 C 45.222656 17.738281 45.605469 19.292969 45.605469 21.050781 C 45.605469 22.558594 45.304688 23.90625 44.703125 25.09375 C 44.097656 26.285156 43.207031 27.167969 42.03125 27.742188 Z M 34.378906 26.546875 C 34.738281 26.652344 35.148438 26.726562 35.613281 26.777344 C 36.074219 26.828125 36.582031 26.855469 37.140625 26.855469 C 38.5625 26.855469 39.628906 26.625 40.34375 26.15625 C 41.058594 25.691406 41.605469 24.980469 41.988281 24.019531 C 42.367188 23.058594 42.558594 22.011719 42.558594 20.871094 C 42.558594 19.113281 42.085938 17.617188 41.140625 16.375 C 40.195312 15.132812 38.816406 14.511719 37.007812 14.511719 C 36.035156 14.511719 35.160156 14.675781 34.378906 15 Z M 34.378906 40.90625 C 35.507812 41.304688 36.625 41.503906 37.722656 41.503906 C 39.484375 41.503906 40.828125 40.902344 41.753906 39.699219 C 42.675781 38.496094 43.140625 37.007812 43.140625 35.234375 C 43.140625 34.066406 42.933594 32.941406 42.515625 31.863281 C 42.09375 30.785156 41.414062 29.9375 40.46875 29.316406 C 39.523438 28.695312 38.355469 28.382812 36.964844 28.382812 C 36.363281 28.382812 35.847656 28.402344 35.417969 28.429688 C 34.988281 28.460938 34.644531 28.511719 34.382812 28.585938 L 34.382812 40.90625 Z M 34.378906 40.90625 "/>
<path style=" stroke:none;fill-rule:nonzero;fill:rgb(100%,100%,100%);fill-opacity:1;" d="M 53.699219 11.566406 L 53.699219 38.492188 C 53.699219 39.761719 53.761719 40.605469 53.882812 41.019531 C 54.003906 41.433594 54.191406 41.746094 54.445312 41.960938 C 54.699219 42.175781 55.171875 42.28125 55.863281 42.28125 L 55.863281 43.078125 L 49.304688 43.078125 L 49.304688 42.28125 C 49.917969 42.28125 50.335938 42.183594 50.5625 41.992188 C 50.785156 41.800781 50.960938 41.480469 51.085938 41.039062 C 51.210938 40.59375 51.277344 39.746094 51.277344 38.492188 L 51.277344 20.054688 C 51.277344 17.761719 51.242188 16.355469 51.175781 15.832031 C 51.105469 15.304688 50.996094 14.949219 50.847656 14.753906 C 50.695312 14.5625 50.503906 14.464844 50.269531 14.464844 C 50.015625 14.464844 49.695312 14.582031 49.304688 14.820312 L 49.058594 14.042969 L 53.046875 11.558594 L 53.699219 11.558594 Z M 53.699219 11.566406 "/>
<path style=" stroke:none;fill-rule:nonzero;fill:rgb(100%,100%,100%);fill-opacity:1;" d="M 57.554688 28.230469 C 57.554688 24.800781 57.894531 21.847656 58.574219 19.375 C 59.257812 16.902344 60.164062 15.058594 61.292969 13.847656 C 62.167969 12.886719 63.074219 12.410156 64.011719 12.410156 C 65.527344 12.410156 66.890625 13.582031 68.097656 15.933594 C 69.605469 18.84375 70.363281 22.789062 70.363281 27.765625 C 70.363281 31.253906 70.03125 34.214844 69.367188 36.652344 C 68.707031 39.089844 67.859375 40.859375 66.835938 41.960938 C 65.808594 43.058594 64.820312 43.613281 63.867188 43.613281 C 61.976562 43.613281 60.402344 41.921875 59.148438 38.539062 C 58.085938 35.683594 57.554688 32.25 57.554688 28.230469 Z M 60.417969 28.785156 C 60.417969 32.921875 60.753906 36.296875 61.425781 38.914062 C 61.980469 41.113281 62.808594 42.214844 63.910156 42.214844 C 64.433594 42.214844 64.980469 41.855469 65.542969 41.140625 C 66.109375 40.421875 66.539062 39.222656 66.828125 37.535156 C 67.277344 34.996094 67.5 31.414062 67.5 26.785156 C 67.5 23.359375 67.265625 20.5 66.800781 18.210938 C 66.449219 16.511719 65.996094 15.304688 65.441406 14.597656 C 65.039062 14.109375 64.558594 13.867188 63.992188 13.867188 C 63.332031 13.867188 62.742188 14.320312 62.226562 15.21875 C 61.523438 16.445312 61.050781 18.375 60.796875 21 C 60.542969 23.632812 60.417969 26.226562 60.417969 28.785156 Z M 60.417969 28.785156 "/>
<path style=" stroke:none;fill-rule:nonzero;fill:rgb(100%,100%,100%);fill-opacity:1;" d="M 78.90625 22.179688 C 80.929688 22.179688 82.554688 23.347656 83.78125 25.683594 C 84.824219 27.675781 85.34375 29.964844 85.34375 32.550781 C 85.34375 34.367188 85.054688 36.207031 84.480469 38.070312 C 83.90625 39.933594 83.113281 41.335938 82.109375 42.277344 C 81.101562 43.222656 79.976562 43.695312 78.742188 43.695312 C 76.726562 43.695312 75.125 42.480469 73.9375 40.042969 C 72.933594 37.988281 72.433594 35.683594 72.433594 33.125 C 72.433594 31.265625 72.738281 29.414062 73.347656 27.574219 C 73.953125 25.734375 74.753906 24.375 75.746094 23.496094 C 76.742188 22.621094 77.796875 22.179688 78.90625 22.179688 Z M 78.453125 23.621094 C 77.9375 23.621094 77.417969 23.855469 76.894531 24.320312 C 76.375 24.785156 75.953125 25.601562 75.632812 26.769531 C 75.3125 27.933594 75.148438 29.4375 75.148438 31.265625 C 75.148438 34.222656 75.539062 36.773438 76.3125 38.914062 C 77.085938 41.054688 78.105469 42.125 79.371094 42.125 C 80.316406 42.125 81.09375 41.535156 81.707031 40.351562 C 82.320312 39.167969 82.625 37.136719 82.625 34.257812 C 82.625 30.652344 82.113281 27.816406 81.089844 25.75 C 80.402344 24.332031 79.523438 23.621094 78.453125 23.621094 Z M 78.453125 23.621094 "/>
<path style=" stroke:none;fill-rule:nonzero;fill:rgb(100%,100%,100%);fill-opacity:1;" d="M 86.351562 24.796875 L 90.46875 22.269531 L 91.023438 22.269531 L 91.023438 27.011719 C 91.714844 25.222656 92.410156 23.972656 93.105469 23.253906 C 93.804688 22.539062 94.535156 22.179688 95.304688 22.179688 C 96.644531 22.179688 97.765625 22.976562 98.660156 24.570312 C 99.761719 26.523438 100.308594 29.0625 100.308594 32.195312 C 100.308594 35.699219 99.648438 38.59375 98.324219 40.882812 C 97.234375 42.757812 95.859375 43.695312 94.207031 43.695312 C 93.484375 43.695312 92.863281 43.542969 92.339844 43.230469 C 91.949219 43.007812 91.511719 42.566406 91.023438 41.902344 L 91.023438 48.085938 C 91.023438 49.476562 91.082031 50.359375 91.191406 50.734375 C 91.304688 51.113281 91.5 51.414062 91.777344 51.632812 C 92.054688 51.855469 92.558594 51.964844 93.289062 51.964844 L 93.289062 52.78125 L 86.28125 52.78125 L 86.28125 51.964844 L 86.644531 51.964844 C 87.179688 51.976562 87.636719 51.820312 88.015625 51.5 C 88.203125 51.335938 88.34375 51.074219 88.445312 50.710938 C 88.546875 50.351562 88.597656 49.429688 88.597656 47.953125 L 88.597656 28.757812 C 88.597656 27.445312 88.558594 26.609375 88.480469 26.253906 C 88.402344 25.898438 88.277344 25.632812 88.109375 25.457031 C 87.9375 25.28125 87.707031 25.191406 87.414062 25.191406 C 87.179688 25.191406 86.882812 25.296875 86.523438 25.503906 Z M 91.023438 28.320312 L 91.023438 35.898438 C 91.023438 37.539062 91.066406 38.617188 91.15625 39.132812 C 91.292969 39.992188 91.625 40.746094 92.15625 41.394531 C 92.6875 42.046875 93.359375 42.371094 94.164062 42.371094 C 95.136719 42.371094 95.925781 41.792969 96.527344 40.640625 C 97.316406 39.132812 97.710938 37.015625 97.710938 34.28125 C 97.710938 31.179688 97.261719 28.792969 96.367188 27.121094 C 95.746094 25.96875 95.003906 25.394531 94.148438 25.394531 C 93.679688 25.394531 93.21875 25.570312 92.761719 25.925781 C 92.414062 26.191406 91.832031 26.992188 91.023438 28.320312 Z M 91.023438 28.320312 "/>
<path style=" stroke:none;fill-rule:nonzero;fill:rgb(100%,100%,100%);fill-opacity:1;" d="M 57.714844 26.941406 L 69.628906 26.941406 L 69.628906 28.996094 L 57.714844 28.996094 Z M 57.714844 26.941406 "/>
<path style=" stroke:none;fill-rule:nonzero;fill:rgb(100%,100%,100%);fill-opacity:1;" d="M 58.226562 33.082031 L 69.628906 33.082031 L 69.628906 35.050781 L 58.226562 35.050781 Z M 58.226562 33.082031 "/>
<path style=" stroke:none;fill-rule:nonzero;fill:rgb(100%,100%,100%);fill-opacity:1;" d="M 58.226562 21.582031 L 69.628906 21.582031 L 69.628906 23.550781 L 58.226562 23.550781 Z M 58.226562 21.582031 "/>
</g>
</svg>
